<svg width="25" height="33" viewBox="0 0 25 33" fill="none" xmlns="http://www.w3.org/2000/svg">
<path d="M8.87292 18.7638C7.90542 17.7485 7.42167 16.5194 7.42167 15.0767V5.01542C7.42167 3.62958 7.91097 2.44722 8.88958 1.46833C9.86847 0.489444 11.0613 0 12.4679 0C13.8743 0 15.0686 0.489444 16.0508 1.46833C17.0331 2.44722 17.5242 3.62958 17.5242 5.01542V15.0767C17.5242 16.5194 17.0368 17.7485 16.0621 18.7638C15.0874 19.779 13.8874 20.2867 12.4621 20.2867C11.0371 20.2867 9.8407 19.779 8.87292 18.7638ZM10.8621 32.815V27.2575C7.74236 26.9114 5.15208 25.5813 3.09125 23.2671C1.03042 20.9529 0 18.2228 0 15.0767H3.24333C3.24333 17.6125 4.14292 19.7603 5.94208 21.52C7.74153 23.2794 9.91736 24.1592 12.4696 24.1592C15.0221 24.1592 17.1964 23.2783 18.9925 21.5167C20.7886 19.7547 21.6867 17.6081 21.6867 15.0767H24.93C24.93 18.2267 23.8996 20.9578 21.8388 23.27C19.7779 25.5822 17.1922 26.9114 14.0817 27.2575V32.815H10.8621Z" fill="white"/>
</svg>
